<svg width="22" height="19" viewBox="0 0 22 19" fill="none" xmlns="http://www.w3.org/2000/svg">
<path d="M15.5833 0.597656C14.645 0.612252 13.7271 0.874201 12.9223 1.35705C12.1176 1.8399 11.4545 2.52655 11 3.34766C10.5455 2.52655 9.88245 1.8399 9.0777 1.35705C8.27295 0.874201 7.35505 0.612252 6.41667 0.597656C4.92079 0.662649 3.51143 1.31703 2.49649 2.41785C1.48156 3.51867 0.943547 4.97643 1.00001 6.47266C1.00001 10.2618 4.98834 14.4002 8.33334 17.206C9.08018 17.8336 10.0245 18.1777 11 18.1777C11.9755 18.1777 12.9198 17.8336 13.6667 17.206C17.0117 14.4002 21 10.2618 21 6.47266C21.0565 4.97643 20.5184 3.51867 19.5035 2.41785C18.4886 1.31703 17.0792 0.662649 15.5833 0.597656ZM12.5958 15.931C12.1492 16.3071 11.584 16.5134 11 16.5134C10.416 16.5134 9.85085 16.3071 9.40417 15.931C5.1225 12.3385 2.66667 8.89182 2.66667 6.47266C2.60971 5.41825 2.97198 4.3841 3.67447 3.59574C4.37697 2.80738 5.3627 2.32878 6.41667 2.26432C7.47064 2.32878 8.45637 2.80738 9.15887 3.59574C9.86136 4.3841 10.2236 5.41825 10.1667 6.47266C10.1667 6.69367 10.2545 6.90563 10.4107 7.06191C10.567 7.21819 10.779 7.30599 11 7.30599C11.221 7.30599 11.433 7.21819 11.5893 7.06191C11.7455 6.90563 11.8333 6.69367 11.8333 6.47266C11.7764 5.41825 12.1386 4.3841 12.8411 3.59574C13.5436 2.80738 14.5294 2.32878 15.5833 2.26432C16.6373 2.32878 17.623 2.80738 18.3255 3.59574C19.028 4.3841 19.3903 5.41825 19.3333 6.47266C19.3333 8.89182 16.8775 12.3385 12.5958 15.9277V15.931Z" fill="black"/>
</svg>
