<svg width="14" height="14" viewBox="0 0 14 14" fill="none" xmlns="http://www.w3.org/2000/svg">
<g clip-path="url(#clip0_116:16)">
<path d="M11.0833 4.914V4.08333C11.0833 3.00037 10.6531 1.96175 9.88733 1.19598C9.12156 0.430207 8.08295 0 6.99998 0C5.91701 0 4.8784 0.430207 4.11263 1.19598C3.34686 1.96175 2.91665 3.00037 2.91665 4.08333V4.914C2.39711 5.14074 1.9549 5.51397 1.64411 5.98804C1.33331 6.46211 1.16739 7.01647 1.16665 7.58333V11.0833C1.16758 11.8566 1.47516 12.5979 2.02194 13.1447C2.56872 13.6915 3.31005 13.9991 4.08332 14H9.91665C10.6899 13.9991 11.4312 13.6915 11.978 13.1447C12.5248 12.5979 12.8324 11.8566 12.8333 11.0833V7.58333C12.8326 7.01647 12.6667 6.46211 12.3559 5.98804C12.0451 5.51397 11.6029 5.14074 11.0833 4.914ZM4.08332 4.08333C4.08332 3.30979 4.39061 2.56792 4.93759 2.02094C5.48457 1.47396 6.22643 1.16667 6.99998 1.16667C7.77353 1.16667 8.5154 1.47396 9.06238 2.02094C9.60936 2.56792 9.91665 3.30979 9.91665 4.08333V4.66667H4.08332V4.08333ZM11.6666 11.0833C11.6666 11.5475 11.4823 11.9926 11.1541 12.3208C10.8259 12.649 10.3808 12.8333 9.91665 12.8333H4.08332C3.61919 12.8333 3.17407 12.649 2.84588 12.3208C2.51769 11.9926 2.33332 11.5475 2.33332 11.0833V7.58333C2.33332 7.1192 2.51769 6.67408 2.84588 6.3459C3.17407 6.01771 3.61919 5.83333 4.08332 5.83333H9.91665C10.3808 5.83333 10.8259 6.01771 11.1541 6.3459C11.4823 6.67408 11.6666 7.1192 11.6666 7.58333V11.0833Z" fill="#BCBCBC"/>
</g>
<defs>
<clipPath id="clip0_116:16">
<rect width="14" height="14" fill="white"/>
</clipPath>
</defs>
</svg>
