<svg width="47" height="30" viewBox="0 0 47 30" fill="none" xmlns="http://www.w3.org/2000/svg">
<path d="M23.5028 3.7603C22.8333 3.7603 22.2905 3.21752 22.2905 2.54803V1.21227C22.2905 0.542773 22.8333 0 23.5028 0C24.1723 0 24.7151 0.542773 24.7151 1.21227V2.54803C24.7151 3.21752 24.1723 3.7603 23.5028 3.7603Z" fill="#7D7BD3"/>
<path d="M15.4726 5.77657C14.9 5.77657 14.3906 5.36908 14.2822 4.78574L14.0207 3.37943C13.8982 2.72117 14.3326 2.08837 14.9908 1.96593C15.6493 1.84365 16.2819 2.27788 16.4043 2.93606L16.6658 4.34237C16.7883 5.00063 16.3539 5.63344 15.6957 5.75588C15.6208 5.76986 15.5462 5.77657 15.4726 5.77657V5.77657Z" fill="#7D7BD3"/>
<path d="M31.5273 5.81551C31.4538 5.81551 31.3792 5.8088 31.3043 5.7949C30.646 5.67246 30.2117 5.03966 30.3341 4.3814L30.5957 2.97509C30.7181 2.31682 31.3508 1.88283 32.0092 2.00495C32.6674 2.12739 33.1017 2.76019 32.9793 3.41845L32.7178 4.82476C32.6092 5.40802 32.0999 5.81551 31.5273 5.81551Z" fill="#7D7BD3"/>
<path d="M29.9911 14.0611H17.0145C16.4305 14.0611 15.9295 13.6447 15.8227 13.0705L14.2821 4.78751C14.1916 4.30098 14.4059 3.8084 14.8234 3.54291C15.2411 3.27743 15.778 3.29246 16.1802 3.58058L20.3 6.53373L22.4048 2.03542C22.6042 1.60919 23.0322 1.33691 23.5027 1.33691C23.9733 1.33691 24.4014 1.60919 24.6007 2.03542L26.7054 6.53373L30.8252 3.58058C31.2275 3.2923 31.7644 3.27735 32.182 3.54291C32.5996 3.8084 32.8138 4.30106 32.7233 4.78751L31.1827 13.0705C31.0762 13.6446 30.5751 14.0611 29.9911 14.0611Z" fill="#9CB0F7"/>
<path d="M32.1822 3.54194C31.7646 3.27637 31.2276 3.29132 30.8254 3.5796L26.7056 6.53276L24.6009 2.03444C24.4015 1.60821 23.9735 1.33594 23.5029 1.33594V14.0602H29.9912C30.5753 14.0602 31.0763 13.6438 31.183 13.0696L32.7237 4.78661C32.814 4.30009 32.5998 3.80743 32.1822 3.54194Z" fill="#6483F1"/>
<path d="M30.7992 14.0593H16.2063C15.5368 14.0593 14.994 13.5165 14.994 12.847C14.994 12.1775 15.5368 11.6348 16.2063 11.6348H30.7992C31.4687 11.6348 32.0115 12.1775 32.0115 12.847C32.0115 13.5165 31.4687 14.0593 30.7992 14.0593Z" fill="#6781E0"/>
<path d="M30.7992 11.6357H23.5027V14.0603H30.7992C31.4687 14.0603 32.0114 13.5175 32.0114 12.848C32.0114 12.1785 31.4687 11.6357 30.7992 11.6357Z" fill="#3F60D7"/>
<rect y="13.5088" width="47" height="16" rx="8" fill="#89A0F2"/>
<path d="M13.288 20.2288C13.564 18.8128 13.564 17.7448 13.564 17.0368V16.4728H8.212V17.2768H12.604C12.604 17.9608 12.568 18.8848 12.316 20.1208L13.288 20.2288ZM14.308 20.8768C13.216 21.0208 11.992 21.1168 10.816 21.1648V18.8728H9.844V21.2008C9.028 21.2128 8.248 21.2248 7.564 21.2248L7.66 22.0288C9.568 22.0288 12.148 21.9688 14.38 21.5968L14.308 20.8768ZM10.192 23.0008H9.208V26.1568H16.36V25.3528H10.192V23.0008ZM16.012 19.1368V15.6328H15.028V23.7448H16.012V19.9528H17.548V19.1368H16.012ZM20.2831 20.4688H24.2551V16.6288H19.2631V17.4328H23.2591V19.6768H19.2991V23.8048H20.1871C22.0351 23.8048 23.6671 23.7328 25.6111 23.4088L25.5151 22.6048C23.6311 22.9048 22.0471 22.9888 20.2831 22.9888V20.4688ZM26.5231 15.6208V26.4088H27.5071V15.6208H26.5231ZM33.3381 17.5528H35.7261V16.7368H29.9061V17.5528H32.3661V18.9208C32.3661 20.7448 31.0701 22.7848 29.5341 23.5528L30.1101 24.3328C31.3221 23.7088 32.3661 22.3408 32.8581 20.7688C33.3501 22.2088 34.3581 23.4688 35.5581 24.0688L36.1221 23.2768C34.5621 22.5448 33.3381 20.6368 33.3381 18.9208V17.5528ZM39.7701 19.9768H37.9941V15.6448H37.0101V26.3968H37.9941V20.8048H39.7701V19.9768Z" fill="white"/>
</svg>
