<svg width="500" height="348" viewBox="0 0 500 348" fill="none" xmlns="http://www.w3.org/2000/svg">
<rect width="500" height="348" fill="#F3F3F3"/>
<path d="M250 174.375C253.956 174.375 257.822 173.202 261.111 171.005C264.4 168.807 266.964 165.684 268.478 162.029C269.991 158.375 270.387 154.353 269.616 150.474C268.844 146.594 266.939 143.03 264.142 140.233C261.345 137.436 257.781 135.531 253.902 134.76C250.022 133.988 246.001 134.384 242.346 135.898C238.692 137.412 235.568 139.975 233.371 143.264C231.173 146.553 230 150.42 230 154.375C230.005 159.678 232.114 164.762 235.864 168.512C239.613 172.261 244.697 174.37 250 174.375ZM250 141.042C252.637 141.042 255.215 141.824 257.408 143.289C259.6 144.754 261.309 146.837 262.318 149.273C263.328 151.709 263.592 154.39 263.077 156.977C262.563 159.563 261.293 161.939 259.428 163.804C257.563 165.668 255.188 166.938 252.601 167.453C250.015 167.967 247.334 167.703 244.898 166.694C242.461 165.685 240.379 163.976 238.914 161.783C237.449 159.59 236.667 157.013 236.667 154.375C236.667 150.839 238.071 147.448 240.572 144.947C243.072 142.447 246.464 141.042 250 141.042Z" fill="white"/>
<path d="M250 180.573C241.08 180.582 232.528 183.745 226.221 189.369C219.913 194.993 216.365 202.619 216.355 210.573C216.355 211.457 216.749 212.305 217.45 212.93C218.151 213.555 219.102 213.906 220.094 213.906C221.085 213.906 222.036 213.555 222.737 212.93C223.438 212.305 223.832 211.457 223.832 210.573C223.832 204.384 226.589 198.449 231.497 194.074C236.404 189.698 243.06 187.239 250 187.239C256.941 187.239 263.597 189.698 268.504 194.074C273.412 198.449 276.169 204.384 276.169 210.573C276.169 211.457 276.562 212.305 277.263 212.93C277.965 213.555 278.915 213.906 279.907 213.906C280.898 213.906 281.849 213.555 282.55 212.93C283.251 212.305 283.645 211.457 283.645 210.573C283.635 202.619 280.087 194.993 273.78 189.369C267.472 183.745 258.92 180.582 250 180.573Z" fill="white"/>
</svg>
