<svg width="684" height="477" viewBox="0 0 684 477" fill="none" xmlns="http://www.w3.org/2000/svg">
<rect width="684" height="476.064" rx="5" fill="#F3F3F3"/>
<g clip-path="url(#clip0_359_264)">
<path d="M342.141 238C345.121 238 348.035 237.12 350.513 235.472C352.992 233.824 354.923 231.481 356.064 228.74C357.205 225.999 357.503 222.983 356.922 220.074C356.34 217.164 354.905 214.491 352.797 212.393C350.69 210.296 348.004 208.867 345.081 208.288C342.157 207.709 339.127 208.006 336.374 209.142C333.62 210.277 331.266 212.2 329.61 214.666C327.954 217.133 327.07 220.033 327.07 223C327.074 226.977 328.663 230.79 331.489 233.602C334.314 236.414 338.145 237.996 342.141 238ZM342.141 213C344.128 213 346.07 213.586 347.723 214.685C349.375 215.784 350.662 217.346 351.423 219.173C352.183 221 352.382 223.011 351.995 224.951C351.607 226.891 350.65 228.673 349.245 230.071C347.84 231.47 346.05 232.422 344.101 232.808C342.152 233.194 340.132 232.996 338.296 232.239C336.46 231.482 334.891 230.2 333.787 228.556C332.683 226.911 332.094 224.978 332.094 223C332.094 220.348 333.152 217.804 335.036 215.929C336.921 214.054 339.476 213 342.141 213V213Z" fill="white"/>
<path d="M342.141 243C336.147 243.007 330.401 245.38 326.164 249.598C321.926 253.816 319.542 259.535 319.535 265.5C319.535 266.163 319.8 266.799 320.271 267.268C320.742 267.737 321.381 268 322.047 268C322.713 268 323.352 267.737 323.823 267.268C324.294 266.799 324.559 266.163 324.559 265.5C324.559 260.859 326.411 256.408 329.708 253.126C333.006 249.844 337.478 248 342.141 248C346.804 248 351.276 249.844 354.573 253.126C357.871 256.408 359.723 260.859 359.723 265.5C359.723 266.163 359.988 266.799 360.459 267.268C360.93 267.737 361.569 268 362.235 268C362.901 268 363.54 267.737 364.011 267.268C364.482 266.799 364.746 266.163 364.746 265.5C364.74 259.535 362.356 253.816 358.118 249.598C353.88 245.38 348.134 243.007 342.141 243V243Z" fill="white"/>
</g>
<defs>
<clipPath id="clip0_359_264">
<rect width="60.2817" height="60" fill="white" transform="translate(312 208)"/>
</clipPath>
</defs>
</svg>
