<svg width="20" height="20" viewBox="0 0 20 20" fill="none" xmlns="http://www.w3.org/2000/svg">
<path d="M15.0002 10.0001C14.9961 9.56172 14.8195 9.14256 14.5085 8.83348L10.9335 5.25014C10.7774 5.09493 10.5662 5.00781 10.346 5.00781C10.1258 5.00781 9.91463 5.09493 9.7585 5.25014C9.68039 5.32761 9.61839 5.41978 9.57609 5.52133C9.53378 5.62288 9.512 5.7318 9.512 5.84181C9.512 5.95182 9.53378 6.06074 9.57609 6.16229C9.61839 6.26384 9.68039 6.356 9.7585 6.43347L12.5002 9.16681H4.16683C3.94582 9.16681 3.73385 9.25461 3.57757 9.41089C3.42129 9.56717 3.3335 9.77913 3.3335 10.0001C3.3335 10.2212 3.42129 10.4331 3.57757 10.5894C3.73385 10.7457 3.94582 10.8335 4.16683 10.8335H12.5002L9.7585 13.5751C9.60158 13.731 9.51298 13.9427 9.5122 14.1639C9.51142 14.385 9.59852 14.5974 9.75433 14.7543C9.91014 14.9112 10.1219 14.9998 10.3431 15.0006C10.5642 15.0014 10.7766 14.9143 10.9335 14.7585L14.5085 11.1751C14.8215 10.864 14.9983 10.4415 15.0002 10.0001Z" fill="black"/>
</svg>
