<svg width="20" height="20" viewBox="0 0 20 20" fill="none" xmlns="http://www.w3.org/2000/svg">
<path d="M11.0774 15.4882L6.42245 10.8332C6.26623 10.6769 6.17847 10.465 6.17847 10.244C6.17847 10.023 6.26623 9.81113 6.42245 9.65485L11.0774 4.99985C11.194 4.88334 11.3425 4.804 11.5041 4.77186C11.6657 4.73972 11.8332 4.75623 11.9855 4.81928C12.1377 4.88234 12.2679 4.98913 12.3594 5.12613C12.451 5.26314 12.4999 5.42422 12.4999 5.58902V14.899C12.4999 15.0638 12.451 15.2249 12.3594 15.3619C12.2679 15.4989 12.1377 15.6057 11.9855 15.6688C11.8332 15.7318 11.6657 15.7483 11.5041 15.7162C11.3425 15.684 11.194 15.6047 11.0774 15.4882Z" fill="black"/>
</svg>
