<svg width="20" height="20" viewBox="0 0 20 20" fill="none" xmlns="http://www.w3.org/2000/svg">
<path d="M7.5 14.899V5.58902C7.50004 5.42422 7.54893 5.26314 7.6405 5.12613C7.73207 4.98913 7.8622 4.88234 8.01445 4.81928C8.1667 4.75623 8.33423 4.73972 8.49586 4.77186C8.65749 4.804 8.80596 4.88334 8.9225 4.99985L13.5775 9.65485C13.7337 9.81113 13.8215 10.023 13.8215 10.244C13.8215 10.465 13.7337 10.6769 13.5775 10.8332L8.9225 15.4882C8.80596 15.6047 8.65749 15.684 8.49586 15.7162C8.33423 15.7483 8.1667 15.7318 8.01445 15.6688C7.8622 15.6057 7.73207 15.4989 7.6405 15.3619C7.54893 15.2249 7.50004 15.0638 7.5 14.899Z" fill="black"/>
</svg>
