<svg width="50" height="50" viewBox="0 0 50 50" fill="none" xmlns="http://www.w3.org/2000/svg">
<circle cx="25" cy="25" r="25" fill="#89A0F2"/>
<g clip-path="url(#clip0_357_7)">
<path d="M30.6277 16L29.2222 14.168C28.9422 13.8058 28.5839 13.5124 28.1744 13.3101C27.7649 13.1077 27.315 13.0017 26.8587 13H23.015C22.5587 13.0017 22.1088 13.1077 21.6993 13.3101C21.2898 13.5124 20.9315 13.8058 20.6515 14.168L19.246 16H30.6277Z" fill="white"/>
<path d="M24.9368 31C27.1343 31 28.9158 29.2091 28.9158 27C28.9158 24.7909 27.1343 23 24.9368 23C22.7393 23 20.9579 24.7909 20.9579 27C20.9579 29.2091 22.7393 31 24.9368 31Z" fill="white"/>
<path d="M31.9 18H17.9737C16.6551 18.0016 15.3909 18.5289 14.4585 19.4662C13.5261 20.4036 13.0016 21.6744 13 23L13 32C13.0016 33.3256 13.5261 34.5964 14.4585 35.5338C15.3909 36.4711 16.6551 36.9984 17.9737 37H31.9C33.2186 36.9984 34.4828 36.4711 35.4152 35.5338C36.3476 34.5964 36.8721 33.3256 36.8737 32V23C36.8721 21.6744 36.3476 20.4036 35.4152 19.4662C34.4828 18.5289 33.2186 18.0016 31.9 18V18ZM24.9368 33C23.7564 33 22.6025 32.6481 21.621 31.9888C20.6395 31.3295 19.8745 30.3925 19.4227 29.2961C18.971 28.1997 18.8528 26.9933 19.0831 25.8295C19.3134 24.6656 19.8818 23.5965 20.7165 22.7574C21.5512 21.9182 22.6147 21.3468 23.7725 21.1153C24.9302 20.8838 26.1303 21.0026 27.2209 21.4567C28.3114 21.9108 29.2436 22.6799 29.8994 23.6666C30.5552 24.6533 30.9053 25.8133 30.9053 27C30.9037 28.5908 30.2744 30.116 29.1554 31.2409C28.0364 32.3658 26.5193 32.9984 24.9368 33V33Z" fill="white"/>
</g>
<defs>
<clipPath id="clip0_357_7">
<rect width="23.8737" height="24" fill="white" transform="translate(13 13)"/>
</clipPath>
</defs>
</svg>
