<svg width="605" height="354" viewBox="0 0 605 354" fill="none" xmlns="http://www.w3.org/2000/svg">
<path d="M0 5C0 2.23857 2.23858 0 5 0H599.15C601.911 0 604.15 2.23858 604.15 5V353.304H0V5Z" fill="#F3F3F3"/>
<g clip-path="url(#clip0_360_44)">
<path d="M300.443 178.117C299.86 177.536 299.167 177.075 298.405 176.761C297.642 176.446 296.825 176.285 295.999 176.285C295.174 176.285 294.356 176.446 293.594 176.761C292.831 177.075 292.138 177.536 291.555 178.117L277.23 192.367C277.423 194.979 278.601 197.423 280.528 199.209C282.455 200.995 284.988 201.992 287.622 202H316.943C318.995 202 321.001 201.396 322.709 200.265L300.443 178.117Z" fill="white"/>
<path d="M314.848 168.667C317.162 168.667 319.037 166.801 319.037 164.5C319.037 162.199 317.162 160.333 314.848 160.333C312.535 160.333 310.66 162.199 310.66 164.5C310.66 166.801 312.535 168.667 314.848 168.667Z" fill="white"/>
<path d="M316.943 152H287.622C284.845 152.003 282.184 153.102 280.221 155.055C278.258 157.007 277.153 159.655 277.15 162.417V186.554L288.593 175.171C289.566 174.203 290.72 173.436 291.991 172.912C293.262 172.388 294.624 172.119 295.999 172.119C297.375 172.119 298.736 172.388 300.007 172.912C301.278 173.436 302.432 174.203 303.405 175.171L325.67 197.319C326.807 195.62 327.414 193.624 327.414 191.583V162.417C327.411 159.655 326.307 157.007 324.344 155.055C322.381 153.102 319.719 152.003 316.943 152V152ZM314.848 172.833C313.191 172.833 311.572 172.345 310.194 171.429C308.816 170.513 307.743 169.212 307.109 167.689C306.475 166.166 306.309 164.491 306.632 162.874C306.955 161.258 307.753 159.773 308.925 158.607C310.096 157.442 311.589 156.648 313.214 156.327C314.839 156.005 316.523 156.17 318.054 156.801C319.585 157.432 320.893 158.5 321.814 159.87C322.734 161.241 323.226 162.852 323.226 164.5C323.226 166.71 322.343 168.83 320.772 170.393C319.201 171.955 317.07 172.833 314.848 172.833Z" fill="white"/>
</g>
<defs>
<clipPath id="clip0_360_44">
<rect width="50.2645" height="50" fill="white" transform="translate(277.15 152)"/>
</clipPath>
</defs>
</svg>
