<svg width="444" height="310" viewBox="0 0 444 310" fill="none" xmlns="http://www.w3.org/2000/svg">
<rect width="444" height="309.024" rx="5" fill="#F3F3F3"/>
<path d="M233.667 141.667H227V140C227 138.674 226.473 137.402 225.536 136.464C224.598 135.527 223.326 135 222 135C220.674 135 219.402 135.527 218.464 136.464C217.527 137.402 217 138.674 217 140V141.667H210.333C208.124 141.669 206.006 142.548 204.444 144.11C202.881 145.673 202.003 147.791 202 150V166.667C202.003 168.876 202.881 170.994 204.444 172.556C206.006 174.119 208.124 174.997 210.333 175H233.667C235.876 174.997 237.994 174.119 239.556 172.556C241.119 170.994 241.997 168.876 242 166.667V150C241.997 147.791 241.119 145.673 239.556 144.11C237.994 142.548 235.876 141.669 233.667 141.667V141.667ZM218.667 165C218.667 165.442 218.491 165.866 218.179 166.179C217.866 166.491 217.442 166.667 217 166.667H208.667C208.225 166.667 207.801 166.491 207.488 166.179C207.176 165.866 207 165.442 207 165V151.667C207 151.225 207.176 150.801 207.488 150.488C207.801 150.176 208.225 150 208.667 150H217C217.442 150 217.866 150.176 218.179 150.488C218.491 150.801 218.667 151.225 218.667 151.667V165ZM222 145C221.558 145 221.134 144.824 220.821 144.512C220.509 144.199 220.333 143.775 220.333 143.333V140C220.333 139.558 220.509 139.134 220.821 138.821C221.134 138.509 221.558 138.333 222 138.333C222.442 138.333 222.866 138.509 223.179 138.821C223.491 139.134 223.667 139.558 223.667 140V143.333C223.667 143.775 223.491 144.199 223.179 144.512C222.866 144.824 222.442 145 222 145ZM232 166.667H225.333C224.891 166.667 224.467 166.491 224.155 166.179C223.842 165.866 223.667 165.442 223.667 165C223.667 164.558 223.842 164.134 224.155 163.821C224.467 163.509 224.891 163.333 225.333 163.333H232C232.442 163.333 232.866 163.509 233.179 163.821C233.491 164.134 233.667 164.558 233.667 165C233.667 165.442 233.491 165.866 233.179 166.179C232.866 166.491 232.442 166.667 232 166.667ZM235.333 160H225.333C224.891 160 224.467 159.824 224.155 159.512C223.842 159.199 223.667 158.775 223.667 158.333C223.667 157.891 223.842 157.467 224.155 157.155C224.467 156.842 224.891 156.667 225.333 156.667H235.333C235.775 156.667 236.199 156.842 236.512 157.155C236.824 157.467 237 157.891 237 158.333C237 158.775 236.824 159.199 236.512 159.512C236.199 159.824 235.775 160 235.333 160ZM235.333 153.333H225.333C224.891 153.333 224.467 153.158 224.155 152.845C223.842 152.533 223.667 152.109 223.667 151.667C223.667 151.225 223.842 150.801 224.155 150.488C224.467 150.176 224.891 150 225.333 150H235.333C235.775 150 236.199 150.176 236.512 150.488C236.824 150.801 237 151.225 237 151.667C237 152.109 236.824 152.533 236.512 152.845C236.199 153.158 235.775 153.333 235.333 153.333ZM210.333 153.333H215.333V163.333H210.333V153.333Z" fill="white"/>
</svg>
