<svg width="50" height="50" viewBox="0 0 50 50" fill="none" xmlns="http://www.w3.org/2000/svg">
<circle cx="25" cy="25" r="23.5" stroke="#7AAFFF" stroke-width="3"/>
<path d="M11.8914 29.3586L17.0989 34.5661C17.8021 35.2691 18.7558 35.6641 19.7502 35.6641C20.7445 35.6641 21.6982 35.2691 22.4014 34.5661L38.4839 18.4836C38.7116 18.2479 38.8376 17.9321 38.8348 17.6044C38.8319 17.2766 38.7005 16.9631 38.4687 16.7314C38.2369 16.4996 37.9234 16.3681 37.5957 16.3653C37.2679 16.3624 36.9522 16.4884 36.7164 16.7161L20.6339 32.7986C20.3995 33.033 20.0816 33.1646 19.7502 33.1646C19.4187 33.1646 19.1008 33.033 18.8664 32.7986L13.6589 27.5911C13.4232 27.3634 13.1074 27.2374 12.7797 27.2403C12.4519 27.2431 12.1384 27.3746 11.9066 27.6064C11.6749 27.8381 11.5434 28.1516 11.5406 28.4794C11.5377 28.8071 11.6637 29.1229 11.8914 29.3586Z" fill="#7AAFFF"/>
</svg>
