<svg width="654" height="348" viewBox="0 0 654 348" fill="none" xmlns="http://www.w3.org/2000/svg">
<rect width="654" height="348" fill="#F3F3F3"/>
<path d="M327 174.376C330.956 174.376 334.822 173.203 338.111 171.005C341.4 168.808 343.964 165.684 345.478 162.03C346.991 158.375 347.387 154.354 346.616 150.474C345.844 146.595 343.939 143.031 341.142 140.234C338.345 137.437 334.781 135.532 330.902 134.76C327.022 133.989 323.001 134.385 319.346 135.898C315.692 137.412 312.568 139.976 310.371 143.265C308.173 146.554 307 150.42 307 154.376C307.005 159.679 309.114 164.763 312.864 168.512C316.613 172.262 321.697 174.371 327 174.376ZM327 141.043C329.637 141.043 332.215 141.825 334.408 143.29C336.6 144.755 338.309 146.837 339.318 149.274C340.328 151.71 340.592 154.391 340.077 156.977C339.563 159.564 338.293 161.939 336.428 163.804C334.563 165.669 332.188 166.939 329.601 167.453C327.015 167.968 324.334 167.704 321.898 166.694C319.461 165.685 317.379 163.976 315.914 161.784C314.449 159.591 313.667 157.013 313.667 154.376C313.667 150.84 315.071 147.448 317.572 144.948C320.072 142.447 323.464 141.043 327 141.043Z" fill="white"/>
<path d="M327 180.573C318.08 180.582 309.528 183.746 303.221 189.37C296.913 194.994 293.365 202.619 293.355 210.573C293.355 211.457 293.749 212.305 294.45 212.93C295.151 213.555 296.102 213.907 297.094 213.907C298.085 213.907 299.036 213.555 299.737 212.93C300.438 212.305 300.832 211.457 300.832 210.573C300.832 204.385 303.589 198.45 308.497 194.074C313.404 189.698 320.06 187.24 327 187.24C333.941 187.24 340.597 189.698 345.504 194.074C350.412 198.45 353.169 204.385 353.169 210.573C353.169 211.457 353.562 212.305 354.263 212.93C354.965 213.555 355.915 213.907 356.907 213.907C357.898 213.907 358.849 213.555 359.55 212.93C360.251 212.305 360.645 211.457 360.645 210.573C360.635 202.619 357.087 194.994 350.78 189.37C344.472 183.746 335.92 180.582 327 180.573Z" fill="white"/>
</svg>
