<svg width="16" height="16" viewBox="0 0 16 16" fill="none" xmlns="http://www.w3.org/2000/svg">
<g clip-path="url(#clip0_344_105)">
<path d="M7.96262 0C6.38776 0 4.84827 0.469192 3.53883 1.34824C2.22938 2.22729 1.20879 3.47672 0.606122 4.93853C0.00345009 6.40034 -0.154236 8.00888 0.153003 9.56072C0.460242 11.1126 1.21861 12.538 2.3322 13.6569C3.44579 14.7757 4.8646 15.5376 6.40919 15.8463C7.95379 16.155 9.5548 15.9965 11.0098 15.391C12.4648 14.7855 13.7084 13.7602 14.5833 12.4446C15.4582 11.129 15.9252 9.58225 15.9252 8C15.923 5.87897 15.0833 3.84547 13.5905 2.34568C12.0977 0.845886 10.0737 0.00229405 7.96262 0V0ZM7.96262 14.6667C6.65024 14.6667 5.36733 14.2757 4.27613 13.5431C3.18492 12.8106 2.33443 11.7694 1.83221 10.5512C1.32998 9.33305 1.19857 7.99261 1.45461 6.6994C1.71064 5.40619 2.34261 4.21831 3.2706 3.28596C4.1986 2.3536 5.38093 1.71867 6.6681 1.46143C7.95526 1.2042 9.28944 1.33622 10.5019 1.8408C11.7144 2.34539 12.7507 3.19987 13.4798 4.2962C14.209 5.39253 14.5981 6.68146 14.5981 8C14.5962 9.76752 13.8965 11.4621 12.6525 12.7119C11.4085 13.9617 9.72188 14.6647 7.96262 14.6667V14.6667Z" fill="black"/>
<path d="M8.66811 4.91041C8.98089 4.91071 9.28077 5.03567 9.50194 5.25787C9.7231 5.48006 9.84749 5.78133 9.8478 6.09555C9.8478 6.198 9.88831 6.29626 9.96042 6.3687C10.0325 6.44115 10.1303 6.48185 10.2323 6.48185C10.3343 6.48185 10.4321 6.44115 10.5042 6.3687C10.5763 6.29626 10.6168 6.198 10.6168 6.09555V6.06928C10.6168 6.06195 10.6168 6.05538 10.6168 6.04804C10.604 5.53725 10.3931 5.0517 10.0291 4.69488C9.66505 4.33805 9.1767 4.13816 8.66811 4.13782H8.30974V3.75153C8.30974 3.64908 8.26923 3.55082 8.19712 3.47838C8.12501 3.40593 8.02721 3.36523 7.92523 3.36523C7.82325 3.36523 7.72545 3.40593 7.65334 3.47838C7.58123 3.55082 7.54072 3.64908 7.54072 3.75153V4.13782H7.18235C6.71991 4.13832 6.27271 4.30402 5.92069 4.6053C5.56867 4.90659 5.33477 5.32383 5.26081 5.78243C5.18685 6.24104 5.27763 6.71113 5.51695 7.10867C5.75626 7.50621 6.1285 7.80529 6.56713 7.95246L7.54072 8.27888V11.0911H7.18235C6.86957 11.0908 6.56969 10.9658 6.34853 10.7436C6.12736 10.5214 6.00297 10.2202 6.00267 9.90595C6.00267 9.80349 5.96216 9.70524 5.89005 9.6328C5.81794 9.56035 5.72013 9.51965 5.61816 9.51965C5.51618 9.51965 5.41837 9.56035 5.34626 9.6328C5.27415 9.70524 5.23364 9.80349 5.23364 9.90595V9.93221C5.23364 9.93955 5.23364 9.94612 5.23364 9.95346C5.24648 10.4642 5.45738 10.9498 5.8214 11.3066C6.18541 11.6635 6.67376 11.8633 7.18235 11.8637H7.54072V12.25C7.54072 12.3524 7.58123 12.4507 7.65334 12.5231C7.72545 12.5956 7.82325 12.6363 7.92523 12.6363C8.02721 12.6363 8.12501 12.5956 8.19712 12.5231C8.26923 12.4507 8.30974 12.3524 8.30974 12.25V11.8637H8.66811C9.13056 11.8632 9.57776 11.6975 9.92978 11.3962C10.2818 11.0949 10.5157 10.6777 10.5897 10.2191C10.6636 9.76046 10.5728 9.29037 10.3335 8.89283C10.0942 8.49529 9.72196 8.19621 9.28333 8.04904L8.30974 7.72262V4.91041H8.66811ZM9.04109 8.78145C9.30695 8.87034 9.53263 9.05141 9.67773 9.29222C9.82284 9.53303 9.87788 9.81787 9.83301 10.0957C9.78813 10.3736 9.64628 10.6263 9.43284 10.8087C9.2194 10.9911 8.94831 11.0912 8.66811 11.0911H8.30974V8.53654L9.04109 8.78145ZM7.54072 7.46496L6.81014 7.22005C6.54435 7.13118 6.3187 6.95018 6.1736 6.70944C6.02849 6.46871 5.97339 6.18396 6.01816 5.90614C6.06294 5.62833 6.20465 5.37559 6.41795 5.19315C6.63126 5.01071 6.90222 4.91049 7.18235 4.91041H7.54072V7.46496Z" fill="black"/>
</g>
<defs>
<clipPath id="clip0_344_105">
<rect width="15.9252" height="16" fill="white"/>
</clipPath>
</defs>
</svg>
