<svg width="24" height="18" viewBox="0 0 24 18" fill="none" xmlns="http://www.w3.org/2000/svg">
<path d="M22.9565 7.95703H1.04346C0.467168 7.95703 0 8.4242 0 9.00049C0 9.57678 0.467168 10.044 1.04346 10.044H22.9565C23.5328 10.044 24 9.57678 24 9.00049C24 8.4242 23.5328 7.95703 22.9565 7.95703Z" fill="black"/>
<path d="M1.04346 2.73927H22.9565C23.5328 2.73927 24 2.2721 24 1.6958C24 1.11951 23.5328 0.652344 22.9565 0.652344H1.04346C0.467168 0.652344 0 1.11951 0 1.6958C0 2.2721 0.467168 2.73927 1.04346 2.73927Z" fill="black"/>
<path d="M22.9565 15.2607H1.04346C0.467168 15.2607 0 15.728 0 16.3043C0 16.8805 0.467168 17.3477 1.04346 17.3477H22.9565C23.5328 17.3477 24 16.8805 24 16.3043C24 15.728 23.5328 15.2607 22.9565 15.2607Z" fill="black"/>
</svg>
