<svg width="20" height="20" viewBox="0 0 20 20" fill="none" xmlns="http://www.w3.org/2000/svg">
<g clip-path="url(#clip0_35:1281)">
<path d="M14.5834 1.59766C13.645 1.61225 12.7271 1.8742 11.9224 2.35705C11.1176 2.8399 10.4545 3.52655 10.0001 4.34766C9.5456 3.52655 8.88251 2.8399 8.07776 2.35705C7.27302 1.8742 6.35511 1.61225 5.41673 1.59766C3.92085 1.66265 2.51149 2.31703 1.49655 3.41785C0.481616 4.51867 -0.0563918 5.97643 6.69663e-05 7.47266C6.69663e-05 11.2618 3.9884 15.4002 7.3334 18.206C8.08025 18.8336 9.02453 19.1777 10.0001 19.1777C10.9756 19.1777 11.9199 18.8336 12.6667 18.206C16.0117 15.4002 20.0001 11.2618 20.0001 7.47266C20.0565 5.97643 19.5185 4.51867 18.5036 3.41785C17.4886 2.31703 16.0793 1.66265 14.5834 1.59766ZM11.5959 16.931C11.1492 17.3071 10.584 17.5134 10.0001 17.5134C9.4161 17.5134 8.85091 17.3071 8.40423 16.931C4.12257 13.3385 1.66673 9.89182 1.66673 7.47266C1.60977 6.41825 1.97204 5.3841 2.67454 4.59574C3.37703 3.80738 4.36276 3.32878 5.41673 3.26432C6.4707 3.32878 7.45643 3.80738 8.15893 4.59574C8.86143 5.3841 9.2237 6.41825 9.16673 7.47266C9.16673 7.69367 9.25453 7.90563 9.41081 8.06191C9.56709 8.21819 9.77905 8.30599 10.0001 8.30599C10.2211 8.30599 10.433 8.21819 10.5893 8.06191C10.7456 7.90563 10.8334 7.69367 10.8334 7.47266C10.7764 6.41825 11.1387 5.3841 11.8412 4.59574C12.5437 3.80738 13.5294 3.32878 14.5834 3.26432C15.6374 3.32878 16.6231 3.80738 17.3256 4.59574C18.0281 5.3841 18.3904 6.41825 18.3334 7.47266C18.3334 9.89182 15.8776 13.3385 11.5959 16.9277V16.931Z" fill="black"/>
</g>
<defs>
<clipPath id="clip0_35:1281">
<rect width="20" height="20" fill="white"/>
</clipPath>
</defs>
</svg>
