<svg width="24" height="24" viewBox="0 0 24 24" fill="none" xmlns="http://www.w3.org/2000/svg">
<path d="M13.293 18.5868L7.70697 13.0008C7.5195 12.8133 7.41418 12.559 7.41418 12.2938C7.41418 12.0286 7.5195 11.7743 7.70697 11.5868L13.293 6.00079C13.4328 5.86099 13.611 5.76578 13.8049 5.72721C13.9989 5.68864 14.1999 5.70845 14.3826 5.78412C14.5653 5.85979 14.7215 5.98793 14.8314 6.15234C14.9413 6.31675 14.9999 6.51004 15 6.7078V17.8798C14.9999 18.0776 14.9413 18.2708 14.8314 18.4353C14.7215 18.5997 14.5653 18.7278 14.3826 18.8035C14.1999 18.8791 13.9989 18.899 13.8049 18.8604C13.611 18.8218 13.4328 18.7266 13.293 18.5868Z" fill="white"/>
</svg>
