<svg width="20" height="20" viewBox="0 0 20 20" fill="none" xmlns="http://www.w3.org/2000/svg">
<g clip-path="url(#clip0_35:1533)">
<path d="M14.5066 1.59766C13.5731 1.61225 12.66 1.8742 11.8595 2.35705C11.059 2.8399 10.3994 3.52655 9.94735 4.34766C9.49528 3.52655 8.83568 2.8399 8.03517 2.35705C7.23466 1.8742 6.32158 1.61225 5.38814 1.59766C3.90013 1.66265 2.49819 2.31703 1.48859 3.41785C0.479 4.51867 -0.0561769 5.97643 -1.53012e-05 7.47266C-1.53012e-05 11.2618 3.96733 15.4002 7.29472 18.206C8.03764 18.8336 8.97695 19.1777 9.94735 19.1777C10.9178 19.1777 11.8571 18.8336 12.6 18.206C15.9274 15.4002 19.8947 11.2618 19.8947 7.47266C19.9509 5.97643 19.4157 4.51867 18.4061 3.41785C17.3965 2.31703 15.9946 1.66265 14.5066 1.59766Z" fill="#FE7171"/>
</g>
<defs>
<clipPath id="clip0_35:1533">
<rect width="19.8947" height="20" fill="white"/>
</clipPath>
</defs>
</svg>
