<svg width="14" height="14" viewBox="0 0 14 14" fill="none" xmlns="http://www.w3.org/2000/svg">
<g clip-path="url(#clip0_287_236)">
<path d="M6.96745 3.5C6.50812 3.5 6.0591 3.63685 5.67718 3.89324C5.29526 4.14963 4.99758 4.51404 4.82181 4.94041C4.64603 5.36677 4.60003 5.83592 4.68965 6.28854C4.77926 6.74117 5.00045 7.15693 5.32525 7.48325C5.65004 7.80957 6.06386 8.0318 6.51437 8.12183C6.96488 8.21187 7.43184 8.16566 7.85621 7.98905C8.28058 7.81245 8.64329 7.51338 8.89848 7.12966C9.15368 6.74595 9.28989 6.29482 9.28989 5.83333C9.28989 5.21449 9.0452 4.621 8.60966 4.18342C8.17412 3.74583 7.5834 3.5 6.96745 3.5ZM6.96745 7C6.73779 7 6.51328 6.93158 6.32232 6.80338C6.13136 6.67519 5.98252 6.49298 5.89463 6.2798C5.80674 6.06662 5.78374 5.83204 5.82855 5.60573C5.87336 5.37942 5.98395 5.17154 6.14635 5.00838C6.30875 4.84521 6.51566 4.7341 6.74091 4.68908C6.96616 4.64407 7.19965 4.66717 7.41183 4.75547C7.62402 4.84378 7.80537 4.99331 7.93297 5.18517C8.06057 5.37703 8.12867 5.60259 8.12867 5.83333C8.12867 6.14275 8.00633 6.4395 7.78856 6.65829C7.57079 6.87708 7.27543 7 6.96745 7Z" fill="#C4C4C4"/>
<path d="M6.9674 14.0002C6.4785 14.0027 5.99611 13.8875 5.56063 13.6642C5.12515 13.4409 4.74925 13.1161 4.4644 12.7168C2.25171 9.65027 1.12939 7.34494 1.12939 5.86444C1.12939 4.30883 1.74447 2.81694 2.83931 1.71696C3.93415 0.616985 5.41907 -0.000976562 6.9674 -0.000976562C8.51574 -0.000976562 10.0007 0.616985 11.0955 1.71696C12.1903 2.81694 12.8054 4.30883 12.8054 5.86444C12.8054 7.34494 11.6831 9.65027 9.4704 12.7168C9.18556 13.1161 8.80966 13.4409 8.37418 13.6642C7.9387 13.8875 7.45631 14.0027 6.9674 14.0002V14.0002ZM6.9674 1.27244C5.75534 1.27383 4.59331 1.7582 3.73625 2.61928C2.87919 3.48036 2.39708 4.64785 2.3957 5.8656C2.3957 7.0381 3.49479 9.20635 5.48976 11.9708C5.65912 12.2051 5.8813 12.3959 6.13813 12.5274C6.39496 12.659 6.67913 12.7275 6.9674 12.7275C7.25567 12.7275 7.53985 12.659 7.79668 12.5274C8.05351 12.3959 8.27569 12.2051 8.44505 11.9708C10.44 9.20635 11.5391 7.0381 11.5391 5.8656C11.5377 4.64785 11.0556 3.48036 10.1986 2.61928C9.3415 1.7582 8.17947 1.27383 6.9674 1.27244V1.27244Z" fill="#C4C4C4"/>
</g>
<defs>
<clipPath id="clip0_287_236">
<rect width="13.9346" height="14" fill="white"/>
</clipPath>
</defs>
</svg>
