<svg width="20" height="20" viewBox="0 0 20 20" fill="none" xmlns="http://www.w3.org/2000/svg">
<g clip-path="url(#clip0_215:2)">
<path d="M5.83333 18.3333H4.16667C3.50363 18.3333 2.86774 18.0699 2.3989 17.6011C1.93006 17.1323 1.66667 16.4964 1.66667 15.8333V4.16667C1.66667 3.50363 1.93006 2.86774 2.3989 2.3989C2.86774 1.93006 3.50363 1.66667 4.16667 1.66667H5.83333C6.05435 1.66667 6.26631 1.57887 6.42259 1.42259C6.57887 1.26631 6.66667 1.05435 6.66667 0.833333C6.66667 0.61232 6.57887 0.400358 6.42259 0.244078C6.26631 0.0877974 6.05435 0 5.83333 0L4.16667 0C3.062 0.00132321 2.00296 0.440735 1.22185 1.22185C0.440735 2.00296 0.00132321 3.062 0 4.16667L0 15.8333C0.00132321 16.938 0.440735 17.997 1.22185 18.7782C2.00296 19.5593 3.062 19.9987 4.16667 20H5.83333C6.05435 20 6.26631 19.9122 6.42259 19.7559C6.57887 19.5996 6.66667 19.3877 6.66667 19.1667C6.66667 18.9457 6.57887 18.7337 6.42259 18.5774C6.26631 18.4211 6.05435 18.3333 5.83333 18.3333Z" fill="black"/>
<path d="M19.1667 9.16649L6.01924 9.19316C6.09233 9.0574 6.18374 8.93234 6.2909 8.82149L9.5234 5.58899C9.603 5.51212 9.66648 5.42016 9.71016 5.31849C9.75383 5.21682 9.77682 5.10747 9.77778 4.99682C9.77874 4.88618 9.75766 4.77644 9.71576 4.67403C9.67385 4.57161 9.61198 4.47857 9.53373 4.40033C9.45549 4.32208 9.36245 4.26021 9.26003 4.21831C9.15762 4.1764 9.04789 4.15532 8.93724 4.15628C8.82659 4.15724 8.71724 4.18023 8.61557 4.22391C8.5139 4.26758 8.42194 4.33107 8.34507 4.41066L5.1109 7.64316C4.486 8.26825 4.13495 9.11594 4.13495 9.99982C4.13495 10.8837 4.486 11.7314 5.1109 12.3565L8.3434 15.589C8.42028 15.6686 8.51223 15.7321 8.6139 15.7757C8.71557 15.8194 8.82492 15.8424 8.93557 15.8434C9.04622 15.8443 9.15595 15.8232 9.25837 15.7813C9.36078 15.7394 9.45382 15.6776 9.53207 15.5993C9.61031 15.5211 9.67219 15.428 9.71409 15.3256C9.75599 15.2232 9.77707 15.1135 9.77611 15.0028C9.77515 14.8922 9.75216 14.7828 9.70849 14.6812C9.66481 14.5795 9.60133 14.4875 9.52174 14.4107L6.28924 11.1782C6.19597 11.0821 6.11456 10.9752 6.04674 10.8598L19.1667 10.8332C19.3878 10.8332 19.5997 10.7454 19.756 10.5891C19.9123 10.4328 20.0001 10.2208 20.0001 9.99982C20.0001 9.77881 19.9123 9.56685 19.756 9.41057C19.5997 9.25429 19.3878 9.16649 19.1667 9.16649Z" fill="black"/>
</g>
<defs>
<clipPath id="clip0_215:2">
<rect width="20" height="20" fill="white"/>
</clipPath>
</defs>
</svg>
