<svg width="14" height="14" viewBox="0 0 14 14" fill="none" xmlns="http://www.w3.org/2000/svg">
<g clip-path="url(#clip0_116:19)">
<path d="M7 7C7.69224 7 8.36892 6.79473 8.9445 6.41015C9.52007 6.02556 9.96867 5.47894 10.2336 4.83939C10.4985 4.19985 10.5678 3.49612 10.4327 2.81719C10.2977 2.13825 9.96436 1.51461 9.47487 1.02513C8.98539 0.535644 8.36175 0.202301 7.68282 0.0672531C7.00388 -0.0677952 6.30015 0.0015165 5.66061 0.266423C5.02107 0.53133 4.47444 0.979934 4.08986 1.55551C3.70527 2.13108 3.5 2.80777 3.5 3.5C3.50093 4.42798 3.86997 5.31768 4.52615 5.97385C5.18233 6.63003 6.07203 6.99908 7 7ZM7 1.16667C7.46149 1.16667 7.91262 1.30352 8.29633 1.55991C8.68005 1.8163 8.97912 2.18071 9.15572 2.60707C9.33232 3.03343 9.37853 3.50259 9.2885 3.95521C9.19847 4.40784 8.97624 4.8236 8.64992 5.14992C8.32359 5.47624 7.90783 5.69847 7.45521 5.7885C7.00259 5.87853 6.53343 5.83233 6.10707 5.65572C5.68071 5.47912 5.31629 5.18005 5.0599 4.79633C4.80351 4.41262 4.66667 3.96149 4.66667 3.5C4.66667 2.88116 4.9125 2.28767 5.35008 1.85009C5.78767 1.4125 6.38116 1.16667 7 1.16667Z" fill="#BCBCBC"/>
<path d="M6.99999 8.16602C5.60808 8.16756 4.27362 8.72118 3.28939 9.70541C2.30516 10.6896 1.75154 12.0241 1.74999 13.416C1.74999 13.5707 1.81145 13.7191 1.92085 13.8285C2.03024 13.9379 2.17862 13.9993 2.33333 13.9993C2.48804 13.9993 2.63641 13.9379 2.7458 13.8285C2.8552 13.7191 2.91666 13.5707 2.91666 13.416C2.91666 12.333 3.34687 11.2944 4.11264 10.5287C4.87841 9.76289 5.91703 9.33268 6.99999 9.33268C8.08296 9.33268 9.12157 9.76289 9.88734 10.5287C10.6531 11.2944 11.0833 12.333 11.0833 13.416C11.0833 13.5707 11.1448 13.7191 11.2542 13.8285C11.3636 13.9379 11.5119 13.9993 11.6667 13.9993C11.8214 13.9993 11.9697 13.9379 12.0791 13.8285C12.1885 13.7191 12.25 13.5707 12.25 13.416C12.2484 12.0241 11.6948 10.6896 10.7106 9.70541C9.72637 8.72118 8.3919 8.16756 6.99999 8.16602Z" fill="#BCBCBC"/>
</g>
<defs>
<clipPath id="clip0_116:19">
<rect width="14" height="14" fill="white"/>
</clipPath>
</defs>
</svg>
