<svg width="20" height="20" viewBox="0 0 20 20" fill="none" xmlns="http://www.w3.org/2000/svg">
<path d="M19.0241 7.64221L15.7916 4.40971C15.6345 4.25791 15.424 4.17391 15.2055 4.17581C14.987 4.17771 14.778 4.26535 14.6235 4.41986C14.4689 4.57437 14.3813 4.78338 14.3794 5.00187C14.3775 5.22037 14.4615 5.43087 14.6133 5.58804L17.8458 8.82054C17.9418 8.91848 18.0258 9.0276 18.0958 9.14554C18.0833 9.14554 18.0733 9.13888 18.0608 9.13888L4.9908 9.16554C4.76979 9.16554 4.55783 9.25334 4.40155 9.40962C4.24527 9.5659 4.15747 9.77786 4.15747 9.99887C4.15747 10.2199 4.24527 10.4318 4.40155 10.5881C4.55783 10.7444 4.76979 10.8322 4.9908 10.8322L18.0558 10.8055C18.0791 10.8055 18.0983 10.7939 18.1208 10.7922C18.0469 10.9332 17.9532 11.0628 17.8425 11.1772L14.61 14.4097C14.5304 14.4866 14.4669 14.5785 14.4232 14.6802C14.3795 14.7819 14.3566 14.8912 14.3556 15.0019C14.3546 15.1125 14.3757 15.2223 14.4176 15.3247C14.4595 15.4271 14.5214 15.5201 14.5996 15.5984C14.6779 15.6766 14.7709 15.7385 14.8733 15.7804C14.9758 15.8223 15.0855 15.8434 15.1961 15.8424C15.3068 15.8415 15.4161 15.8185 15.5178 15.7748C15.6195 15.7311 15.7114 15.6676 15.7883 15.588L19.0208 12.3555C19.6457 11.7304 19.9968 10.8828 19.9968 9.99887C19.9968 9.11499 19.6457 8.2673 19.0208 7.64221H19.0241Z" fill="black"/>
<path d="M5.83333 18.3333H4.16667C3.50363 18.3333 2.86774 18.0699 2.3989 17.6011C1.93006 17.1323 1.66667 16.4964 1.66667 15.8333V4.16667C1.66667 3.50363 1.93006 2.86774 2.3989 2.3989C2.86774 1.93006 3.50363 1.66667 4.16667 1.66667H5.83333C6.05435 1.66667 6.26631 1.57887 6.42259 1.42259C6.57887 1.26631 6.66667 1.05435 6.66667 0.833333C6.66667 0.61232 6.57887 0.400358 6.42259 0.244078C6.26631 0.0877974 6.05435 0 5.83333 0L4.16667 0C3.062 0.00132321 2.00296 0.440735 1.22185 1.22185C0.440735 2.00296 0.00132321 3.062 0 4.16667L0 15.8333C0.00132321 16.938 0.440735 17.997 1.22185 18.7782C2.00296 19.5593 3.062 19.9987 4.16667 20H5.83333C6.05435 20 6.26631 19.9122 6.42259 19.7559C6.57887 19.5996 6.66667 19.3877 6.66667 19.1667C6.66667 18.9457 6.57887 18.7337 6.42259 18.5774C6.26631 18.4211 6.05435 18.3333 5.83333 18.3333Z" fill="black"/>
</svg>
