<svg width="26" height="7" viewBox="0 0 26 7" fill="none" xmlns="http://www.w3.org/2000/svg">
<line x1="4.37114e-08" y1="3.5" x2="26" y2="3.5" stroke="#C4C4C4"/>
<path d="M14.5108 2.44016L11.9512 0.145382C11.8467 0.0522657 11.7054 0 11.5581 0C11.4108 0 11.2694 0.0522657 11.1649 0.145382C11.1127 0.191859 11.0712 0.247154 11.0429 0.308078C11.0146 0.369002 11 0.434348 11 0.500348C11 0.566347 11.0146 0.631694 11.0429 0.692618C11.0712 0.753541 11.1127 0.808836 11.1649 0.855313L13.7301 3.14509C13.7823 3.19157 13.8238 3.24686 13.8521 3.30779C13.8804 3.36871 13.895 3.43406 13.895 3.50006C13.895 3.56606 13.8804 3.6314 13.8521 3.69233C13.8238 3.75325 13.7823 3.80855 13.7301 3.85502L11.1649 6.1448C11.0599 6.23828 11.0007 6.36533 11.0001 6.498C10.9996 6.63067 11.0579 6.75809 11.1622 6.85223C11.2664 6.94638 11.4081 6.99953 11.5561 7C11.7041 7.00047 11.8462 6.94821 11.9512 6.85473L14.5108 4.55995C14.824 4.27873 15 3.89752 15 3.50006C15 3.10259 14.824 2.72138 14.5108 2.44016V2.44016Z" fill="#C4C4C4"/>
</svg>
