<svg width="364" height="190" viewBox="0 0 364 190" fill="none" xmlns="http://www.w3.org/2000/svg">
<path d="M0 10C0 4.47715 4.47715 0 10 0H354C359.523 0 364 4.47715 364 10V190H0V10Z" fill="#F3F3F3"/>
<path d="M204.089 107.777C204.089 119.947 194.224 122.944 182.054 122.944C169.885 122.944 160.019 119.947 160.019 107.777C160.019 95.6077 169.885 85.7422 182.054 85.7422C194.224 85.7422 204.089 95.6077 204.089 107.777Z" fill="white"/>
<ellipse cx="172.325" cy="76.299" rx="7.72661" ry="8.29896" fill="white"/>
<ellipse cx="191.784" cy="76.299" rx="7.72661" ry="8.29896" fill="white"/>
<ellipse cx="207.183" cy="89.6101" rx="6.14147" ry="7.72661" transform="rotate(24.8118 207.183 89.6101)" fill="white"/>
<ellipse rx="6.14147" ry="7.72661" transform="matrix(-0.907691 0.419639 0.419639 0.907691 156.817 89.6101)" fill="white"/>
</svg>
