<svg width="20" height="20" viewBox="0 0 20 20" fill="none" xmlns="http://www.w3.org/2000/svg">
<path d="M10 10.0937C10.9889 10.0937 11.9556 9.8005 12.7779 9.2511C13.6001 8.70169 14.241 7.9208 14.6194 7.00717C14.9978 6.09354 15.0969 5.0882 14.9039 4.1183C14.711 3.14839 14.2348 2.25748 13.5355 1.55822C12.8363 0.858955 11.9454 0.382752 10.9755 0.189826C10.0055 -0.00310022 9.00021 0.0959164 8.08658 0.474354C7.17295 0.852792 6.39206 1.49365 5.84265 2.3159C5.29324 3.13815 5 4.10484 5 5.09375C5.00132 6.41943 5.52853 7.69043 6.46593 8.62782C7.40332 9.56522 8.67432 10.0924 10 10.0937ZM10 1.76042C10.6593 1.76042 11.3037 1.95591 11.8519 2.32219C12.4001 2.68846 12.8273 3.20905 13.0796 3.81814C13.3319 4.42723 13.3979 5.09745 13.2693 5.74405C13.1407 6.39065 12.8232 6.9846 12.357 7.45077C11.8908 7.91695 11.2969 8.23442 10.6503 8.36303C10.0037 8.49165 9.33348 8.42564 8.72439 8.17335C8.1153 7.92106 7.59471 7.49381 7.22843 6.94565C6.86216 6.39749 6.66667 5.75302 6.66667 5.09375C6.66667 4.2097 7.01786 3.36185 7.64298 2.73673C8.2681 2.11161 9.11594 1.76042 10 1.76042Z" fill="black"/>
<path d="M9.99996 11.6426C7.76993 11.6448 5.63194 12.4357 4.05506 13.8417C2.47819 15.2478 1.59122 17.1541 1.58875 19.1426C1.58875 19.3636 1.68721 19.5756 1.86248 19.7318C2.03774 19.8881 2.27546 19.9759 2.52332 19.9759C2.77119 19.9759 3.0089 19.8881 3.18417 19.7318C3.35944 19.5756 3.4579 19.3636 3.4579 19.1426C3.4579 17.5955 4.14715 16.1118 5.37403 15.0178C6.6009 13.9238 8.2649 13.3092 9.99996 13.3092C11.735 13.3092 13.399 13.9238 14.6259 15.0178C15.8528 16.1118 16.542 17.5955 16.542 19.1426C16.542 19.3636 16.6405 19.5756 16.8157 19.7318C16.991 19.8881 17.2287 19.9759 17.4766 19.9759C17.7245 19.9759 17.9622 19.8881 18.1374 19.7318C18.3127 19.5756 18.4112 19.3636 18.4112 19.1426C18.4087 17.1541 17.5217 15.2478 15.9449 13.8417C14.368 12.4357 12.23 11.6448 9.99996 11.6426Z" fill="black"/>
</svg>
