<svg width="100" height="100" viewBox="0 0 100 100" fill="none" xmlns="http://www.w3.org/2000/svg">
<rect width="100" height="100" rx="5" fill="#F3F3F3"/>
<g clip-path="url(#clip0_288_267)">
<path d="M50.0938 50C52.0809 50 54.0234 49.4135 55.6756 48.3147C57.3278 47.2159 58.6156 45.6541 59.376 43.8268C60.1364 41.9996 60.3354 39.9889 59.9477 38.0491C59.5601 36.1093 58.6032 34.3275 57.1981 32.9289C55.793 31.5304 54.0028 30.578 52.0539 30.1922C50.105 29.8063 48.0849 30.0043 46.249 30.7612C44.4132 31.5181 42.8441 32.7998 41.7401 34.4443C40.6361 36.0888 40.0469 38.0222 40.0469 40C40.0495 42.6514 41.1089 45.1934 42.9925 47.0681C44.8761 48.9429 47.43 49.9974 50.0938 50ZM50.0938 33.3333C51.4186 33.3333 52.7135 33.7243 53.815 34.4569C54.9165 35.1894 55.775 36.2306 56.2819 37.4488C56.7889 38.667 56.9215 40.0074 56.6631 41.3006C56.4046 42.5938 55.7667 43.7817 54.83 44.714C53.8933 45.6464 52.6998 46.2813 51.4005 46.5386C50.1013 46.7958 48.7545 46.6638 47.5306 46.1592C46.3067 45.6546 45.2607 44.8001 44.5247 43.7038C43.7887 42.6075 43.3959 41.3185 43.3959 40C43.3959 38.2319 44.1015 36.5362 45.3576 35.286C46.6138 34.0357 48.3174 33.3333 50.0938 33.3333V33.3333Z" fill="white"/>
<path d="M50.0939 53.333C46.0983 53.3374 42.2676 54.9192 39.4424 57.7313C36.6171 60.5434 35.0279 64.3561 35.0234 68.333C35.0234 68.775 35.1999 69.199 35.5139 69.5115C35.8279 69.8241 36.2538 69.9997 36.6979 69.9997C37.142 69.9997 37.5679 69.8241 37.882 69.5115C38.196 69.199 38.3724 68.775 38.3724 68.333C38.3724 65.2388 39.6074 62.2714 41.8056 60.0834C44.0037 57.8955 46.9851 56.6663 50.0939 56.6663C53.2026 56.6663 56.184 57.8955 58.3822 60.0834C60.5804 62.2714 61.8153 65.2388 61.8153 68.333C61.8153 68.775 61.9917 69.199 62.3057 69.5115C62.6198 69.8241 63.0457 69.9997 63.4898 69.9997C63.9339 69.9997 64.3598 69.8241 64.6738 69.5115C64.9879 69.199 65.1643 68.775 65.1643 68.333C65.1599 64.3561 63.5707 60.5434 60.7454 57.7313C57.9201 54.9192 54.0894 53.3374 50.0939 53.333V53.333Z" fill="white"/>
</g>
<defs>
<clipPath id="clip0_288_267">
<rect width="40.1878" height="40" fill="white" transform="translate(30 30)"/>
</clipPath>
</defs>
</svg>
