<svg width="34" height="23" viewBox="0 0 34 23" fill="none" xmlns="http://www.w3.org/2000/svg">
<path d="M16.8071 3.08929C16.2571 3.08929 15.8112 2.64338 15.8112 2.09335V0.995947C15.8112 0.445919 16.2571 0 16.8071 0C17.3571 0 17.8031 0.445919 17.8031 0.995947V2.09335C17.8031 2.64338 17.3571 3.08929 16.8071 3.08929Z" fill="#5B58F8"/>
<path d="M10.2098 4.7472C9.73943 4.7472 9.32093 4.41243 9.23183 3.93318L9.01697 2.77782C8.91638 2.23702 9.27326 1.71714 9.81399 1.61655C10.355 1.51609 10.8747 1.87283 10.9753 2.41357L11.1901 3.56893C11.2907 4.10973 10.9338 4.62961 10.3931 4.7302C10.3315 4.74169 10.2703 4.7472 10.2098 4.7472Z" fill="#5B58F8"/>
<path d="M23.3997 4.77835C23.3393 4.77835 23.278 4.77284 23.2165 4.76142C22.6757 4.66083 22.3188 4.14094 22.4194 3.60015L22.6343 2.44478C22.7349 1.90399 23.2547 1.54744 23.7956 1.64776C24.3364 1.74835 24.6932 2.26824 24.5926 2.80903L24.3777 3.9644C24.2886 4.44358 23.8701 4.77835 23.3997 4.77835Z" fill="#5B58F8"/>
<path d="M22.1376 11.5532H11.4766C10.9968 11.5532 10.5852 11.2112 10.4975 10.7394L9.23175 3.93446C9.15739 3.53476 9.33347 3.13007 9.67647 2.91196C10.0196 2.69385 10.4607 2.7062 10.7911 2.9429L14.1758 5.36909L15.905 1.67347C16.0688 1.3233 16.4205 1.09961 16.807 1.09961C17.1936 1.09961 17.5453 1.3233 17.7091 1.67347L19.4382 5.36909L22.8229 2.9429C23.1533 2.70607 23.5944 2.69378 23.9375 2.91196C24.2806 3.13007 24.4566 3.53483 24.3822 3.93446L23.1165 10.7394C23.029 11.2111 22.6174 11.5532 22.1376 11.5532Z" fill="#ADCBF8"/>
<path d="M23.9376 2.91001C23.5946 2.69183 23.1534 2.70412 22.823 2.94095L19.4383 5.36714L17.7092 1.67152C17.5453 1.32134 17.1937 1.09766 16.8071 1.09766V11.5514H22.1376C22.6175 11.5514 23.0291 11.2093 23.1168 10.7375L24.3825 3.93258C24.4567 3.53287 24.2807 3.12812 23.9376 2.91001Z" fill="#5993EB"/>
<path d="M22.8016 11.5505H10.8127C10.2626 11.5505 9.81671 11.1046 9.81671 10.5545C9.81671 10.0045 10.2626 9.55859 10.8127 9.55859H22.8016C23.3516 9.55859 23.7975 10.0045 23.7975 10.5545C23.7975 11.1046 23.3516 11.5505 22.8016 11.5505Z" fill="#9CBDEE"/>
<path d="M22.8016 9.55859H16.8071V11.5505H22.8016C23.3516 11.5505 23.7975 11.1046 23.7975 10.5545C23.7975 10.0045 23.3516 9.55859 22.8016 9.55859Z" fill="#3F7BD7"/>
<rect y="11" width="34" height="12" rx="6" fill="#7AAFFF"/>
<path d="M14.552 17.16H12.768V14.664H14.552V17.16ZM12.112 17.16H11.016V17.696H16.304V17.16H15.208V14.664H16.32V14.136H11V14.664H12.112V17.16ZM10.424 19.128V19.672H16.928V19.128H10.424ZM21.3594 19.168V17.816H23.6554V17.288H19.2394V16.128H23.4874V13.944H18.5754V14.48H22.8474V15.6H18.5914V17.816H20.6954V19.168H17.7754V19.704H24.2954V19.168H21.3594Z" fill="white"/>
</svg>
