<svg width="400" height="206" viewBox="0 0 400 206" fill="none" xmlns="http://www.w3.org/2000/svg">
<path d="M0 5C0 2.23858 2.23858 0 5 0H395C397.761 0 400 2.23858 400 5V206H0V5Z" fill="#F3F3F3"/>
<path d="M221.615 115.022C221.615 126.655 212.185 129.52 200.552 129.52C188.919 129.52 179.489 126.655 179.489 115.022C179.489 103.389 188.919 93.959 200.552 93.959C212.185 93.959 221.615 103.389 221.615 115.022Z" fill="white"/>
<ellipse cx="191.251" cy="84.9328" rx="7.38574" ry="7.93283" fill="white"/>
<ellipse cx="209.852" cy="84.9328" rx="7.38574" ry="7.93283" fill="white"/>
<ellipse cx="224.572" cy="97.6577" rx="5.87053" ry="7.38574" transform="rotate(24.8118 224.572 97.6577)" fill="white"/>
<ellipse rx="5.87053" ry="7.38574" transform="matrix(-0.907691 0.419639 0.419639 0.907691 176.428 97.6577)" fill="white"/>
</svg>
