<svg width="60" height="60" viewBox="0 0 60 60" fill="none" xmlns="http://www.w3.org/2000/svg">
<circle cx="30" cy="30" r="30" fill="#F3F3F3"/>
<g clip-path="url(#clip0_288_268)">
<path d="M30.0565 30C31.2487 30 32.4142 29.6481 33.4056 28.9888C34.3969 28.3295 35.1695 27.3925 35.6258 26.2961C36.082 25.1997 36.2014 23.9933 35.9688 22.8295C35.7362 21.6656 35.1621 20.5965 34.319 19.7574C33.476 18.9182 32.4019 18.3468 31.2325 18.1153C30.0632 17.8838 28.8511 18.0026 27.7496 18.4567C26.6481 18.9109 25.7066 19.6799 25.0442 20.6666C24.3819 21.6533 24.0283 22.8133 24.0283 24C24.0299 25.5908 24.6655 27.116 25.7957 28.2409C26.9258 29.3658 28.4582 29.9984 30.0565 30ZM30.0565 20C30.8513 20 31.6283 20.2346 32.2892 20.6741C32.9501 21.1136 33.4652 21.7384 33.7694 22.4693C34.0735 23.2002 34.1531 24.0044 33.998 24.7804C33.843 25.5563 33.4602 26.269 32.8982 26.8284C32.3362 27.3878 31.6201 27.7688 30.8405 27.9231C30.0609 28.0775 29.2529 27.9983 28.5186 27.6955C27.7842 27.3928 27.1566 26.8801 26.715 26.2223C26.2734 25.5645 26.0377 24.7911 26.0377 24C26.0377 22.9391 26.4611 21.9217 27.2148 21.1716C27.9685 20.4214 28.9906 20 30.0565 20V20Z" fill="white"/>
<path d="M30.0564 32C27.6591 32.0026 25.3607 32.9517 23.6655 34.639C21.9703 36.3262 21.0168 38.6139 21.0142 41C21.0142 41.2652 21.12 41.5196 21.3084 41.7071C21.4968 41.8946 21.7524 42 22.0189 42C22.2853 42 22.5409 41.8946 22.7293 41.7071C22.9177 41.5196 23.0235 41.2652 23.0235 41C23.0235 39.1435 23.7645 37.363 25.0834 36.0503C26.4023 34.7375 28.1912 34 30.0564 34C31.9216 34 33.7105 34.7375 35.0294 36.0503C36.3483 37.363 37.0893 39.1435 37.0893 41C37.0893 41.2652 37.1951 41.5196 37.3835 41.7071C37.572 41.8946 37.8275 42 38.094 42C38.3604 42 38.616 41.8946 38.8044 41.7071C38.9928 41.5196 39.0987 41.2652 39.0987 41C39.096 38.6139 38.1425 36.3262 36.4473 34.639C34.7521 32.9517 32.4537 32.0026 30.0564 32V32Z" fill="white"/>
</g>
<defs>
<clipPath id="clip0_288_268">
<rect width="24.1127" height="24" fill="white" transform="translate(18 18)"/>
</clipPath>
</defs>
</svg>
