<svg width="24" height="24" viewBox="0 0 24 24" fill="none" xmlns="http://www.w3.org/2000/svg">
<g clip-path="url(#clip0_74:6)">
<path d="M23.7246 8.79347C23.521 8.14236 23.1143 7.57438 22.5645 7.1735C22.0148 6.77262 21.3512 6.56014 20.6719 6.56747H16.3234L15.0026 2.43147C14.7949 1.78042 14.3867 1.21248 13.837 0.809531C13.2873 0.406583 12.6244 0.189453 11.9439 0.189453C11.2634 0.189453 10.6006 0.406583 10.0508 0.809531C9.50112 1.21248 9.09298 1.78042 8.88527 2.43147L7.56448 6.56747H3.21589C2.53881 6.56844 1.87936 6.78435 1.33172 7.18437C0.784076 7.58439 0.376263 8.14806 0.166528 8.79485C-0.0432062 9.44165 -0.0441345 10.1385 0.163876 10.7859C0.371887 11.4332 0.778196 11.998 1.32477 12.3995L4.86415 14.9995L3.51847 19.1865C3.301 19.8359 3.29825 20.5385 3.51062 21.1896C3.72299 21.8406 4.1391 22.4053 4.69694 22.7995C5.24522 23.2062 5.90964 23.4242 6.5912 23.4207C7.27276 23.4173 7.93498 23.1927 8.47918 22.7805L11.9439 20.2185L15.4096 22.7775C15.9569 23.1819 16.6178 23.4016 17.2972 23.4049C17.9765 23.4083 18.6395 23.1951 19.1907 22.796C19.7418 22.3969 20.1529 21.8325 20.3647 21.1839C20.5765 20.5354 20.5781 19.836 20.3694 19.1865L19.0237 14.9995L22.567 12.3995C23.1199 12.003 23.5309 11.4383 23.7394 10.7888C23.9479 10.1394 23.9427 9.43972 23.7246 8.79347ZM21.3926 10.7845L17.2679 13.8135C17.0985 13.9376 16.9725 14.1124 16.9077 14.3128C16.843 14.5132 16.843 14.729 16.9076 14.9295L18.4753 19.7995C18.5546 20.0465 18.5539 20.3124 18.4733 20.559C18.3927 20.8056 18.2364 21.0201 18.0268 21.1718C17.8172 21.3235 17.5651 21.4046 17.3068 21.4032C17.0484 21.4019 16.7972 21.3183 16.5891 21.1645L12.5331 18.1645C12.3623 18.0384 12.1559 17.9704 11.9439 17.9704C11.7319 17.9704 11.5255 18.0384 11.3547 18.1645L7.29872 21.1645C7.09078 21.3204 6.83882 21.4057 6.57936 21.4081C6.31991 21.4104 6.06645 21.3297 5.85573 21.1776C5.645 21.0255 5.48797 20.8099 5.4074 20.5622C5.32682 20.3144 5.3269 20.0472 5.4076 19.7995L6.98022 14.9295C7.04483 14.729 7.04478 14.5132 6.98008 14.3128C6.91538 14.1124 6.78933 13.9376 6.61991 13.8135L2.49527 10.7845C2.28755 10.6317 2.13321 10.4168 2.05429 10.1706C1.97536 9.92441 1.9759 9.65944 2.05582 9.41356C2.13574 9.16769 2.29096 8.95347 2.4993 8.80152C2.70764 8.64957 2.95844 8.56765 3.21589 8.56747H8.29206C8.50279 8.56746 8.70807 8.50026 8.87836 8.37554C9.04864 8.25082 9.17513 8.07503 9.23961 7.87347L10.7824 3.04247C10.8616 2.79525 11.0168 2.57966 11.2257 2.42672C11.4346 2.27377 11.6864 2.19137 11.9449 2.19137C12.2034 2.19137 12.4552 2.27377 12.6641 2.42672C12.873 2.57966 13.0283 2.79525 13.1075 3.04247L14.6502 7.87347C14.7147 8.07503 14.8412 8.25082 15.0115 8.37554C15.1817 8.50026 15.387 8.56746 15.5978 8.56747H20.6739C20.9314 8.56765 21.1822 8.64957 21.3905 8.80152C21.5989 8.95347 21.7541 9.16769 21.834 9.41356C21.9139 9.65944 21.9145 9.92441 21.8355 10.1706C21.7566 10.4168 21.6023 10.6317 21.3945 10.7845H21.3926Z" fill="black"/>
</g>
<defs>
<clipPath id="clip0_74:6">
<rect width="23.8878" height="24" fill="white"/>
</clipPath>
</defs>
</svg>
