<svg width="24" height="24" viewBox="0 0 24 24" fill="none" xmlns="http://www.w3.org/2000/svg">
<g clip-path="url(#clip0_35:1306)">
<path d="M23.707 22.2938L17.738 16.3248C19.3646 14.3354 20.1643 11.7969 19.9718 9.23432C19.7793 6.67179 18.6092 4.28129 16.7036 2.55728C14.7979 0.833269 12.3026 -0.0923492 9.73361 -0.0281174C7.16466 0.0361144 4.71867 1.08528 2.90158 2.90237C1.08449 4.71946 0.035321 7.16545 -0.0289109 9.7344C-0.0931427 12.3034 0.832476 14.7987 2.55649 16.7043C4.2805 18.61 6.671 19.7801 9.23353 19.9726C11.7961 20.1651 14.3346 19.3654 16.324 17.7388L22.293 23.7078C22.4816 23.8899 22.7342 23.9907 22.9964 23.9884C23.2586 23.9862 23.5094 23.881 23.6948 23.6956C23.8802 23.5102 23.9854 23.2594 23.9876 22.9972C23.9899 22.735 23.8891 22.4824 23.707 22.2938ZM9.99997 18.0008C8.41772 18.0008 6.871 17.5316 5.5554 16.6525C4.23981 15.7735 3.21443 14.524 2.60893 13.0622C2.00343 11.6004 1.845 9.99189 2.15368 8.44004C2.46236 6.88819 3.22429 5.46272 4.34311 4.3439C5.46193 3.22508 6.88739 2.46316 8.43924 2.15448C9.99109 1.84579 11.5996 2.00422 13.0614 2.60972C14.5232 3.21522 15.7727 4.2406 16.6517 5.5562C17.5308 6.87179 18 8.41851 18 10.0008C17.9976 12.1218 17.154 14.1552 15.6542 15.655C14.1544 17.1548 12.121 17.9984 9.99997 18.0008Z" fill="black"/>
</g>
<defs>
<clipPath id="clip0_35:1306">
<rect width="24" height="24" fill="white"/>
</clipPath>
</defs>
</svg>
