<svg width="47" height="30" viewBox="0 0 47 30" fill="none" xmlns="http://www.w3.org/2000/svg">
<path d="M23.5028 4.25151C22.8333 4.25151 22.2905 3.70873 22.2905 3.03924V1.70348C22.2905 1.03398 22.8333 0.491211 23.5028 0.491211C24.1723 0.491211 24.7151 1.03398 24.7151 1.70348V3.03924C24.7151 3.70873 24.1723 4.25151 23.5028 4.25151Z" fill="#7D7BD3"/>
<path d="M15.4726 6.26778C14.9 6.26778 14.3906 5.86029 14.2822 5.27695L14.0207 3.87064C13.8982 3.21238 14.3326 2.57958 14.9908 2.45714C15.6493 2.33486 16.2819 2.76909 16.4043 3.42727L16.6658 4.83358C16.7883 5.49185 16.3539 6.12465 15.6957 6.24709C15.6208 6.26107 15.5462 6.26778 15.4726 6.26778V6.26778Z" fill="#7D7BD3"/>
<path d="M31.5273 6.30672C31.4538 6.30672 31.3792 6.30001 31.3043 6.28611C30.646 6.16367 30.2117 5.53087 30.3341 4.87261L30.5957 3.4663C30.7181 2.80804 31.3508 2.37404 32.0092 2.49616C32.6674 2.6186 33.1017 3.2514 32.9793 3.90966L32.7178 5.31597C32.6092 5.89924 32.0999 6.30672 31.5273 6.30672Z" fill="#7D7BD3"/>
<path d="M29.9911 14.5523H17.0145C16.4305 14.5523 15.9295 14.1359 15.8227 13.5617L14.2821 5.27872C14.1916 4.79219 14.4059 4.29961 14.8234 4.03413C15.2411 3.76864 15.778 3.78367 16.1802 4.07179L20.3 7.02495L22.4048 2.52663C22.6042 2.1004 23.0322 1.82812 23.5027 1.82812C23.9733 1.82812 24.4014 2.1004 24.6007 2.52663L26.7054 7.02495L30.8252 4.07179C31.2275 3.78351 31.7644 3.76856 32.182 4.03413C32.5996 4.29961 32.8138 4.79228 32.7233 5.27872L31.1827 13.5617C31.0762 14.1359 30.5751 14.5523 29.9911 14.5523Z" fill="#9CB0F7"/>
<path d="M32.1822 4.03315C31.7646 3.76758 31.2276 3.78253 30.8254 4.07081L26.7056 7.02397L24.6009 2.52566C24.4015 2.09942 23.9735 1.82715 23.5029 1.82715V14.5514H29.9912C30.5753 14.5514 31.0763 14.1351 31.183 13.5608L32.7237 5.27783C32.814 4.7913 32.5998 4.29864 32.1822 4.03315Z" fill="#6483F1"/>
<path d="M30.7992 14.5505H16.2063C15.5368 14.5505 14.994 14.0077 14.994 13.3382C14.994 12.6687 15.5368 12.126 16.2063 12.126H30.7992C31.4687 12.126 32.0115 12.6687 32.0115 13.3382C32.0115 14.0077 31.4687 14.5505 30.7992 14.5505Z" fill="#6781E0"/>
<path d="M30.7992 12.127H23.5027V14.5515H30.7992C31.4687 14.5515 32.0114 14.0087 32.0114 13.3392C32.0114 12.6697 31.4687 12.127 30.7992 12.127Z" fill="#3F60D7"/>
<rect y="14" width="47" height="16" rx="8" fill="#89A0F2"/>
<path d="M9.796 24.92H16.12V22.496H8.8V23.252H15.148V24.2H8.836V26.756H16.444V26H9.796V24.92ZM13 20.804V19.784H16.216V18.992H9.916V17.324H16.108V16.532H8.932V19.784H12.016V20.804H7.624V21.596H17.368V20.804H13ZM20.7991 19.616H26.2951V21.596H20.7991V19.616ZM24.0391 24.704V22.388H27.2551V16.892H26.2951V18.812H20.7991V16.892H19.8271V22.388H23.0431V24.704H18.6751V25.508H28.4311V24.704H24.0391ZM30.3381 17.18V24.176H35.2821V17.18H30.3381ZM34.3221 17.972V23.396H31.2981V17.972H34.3221ZM37.5381 16.124V26.912H38.5221V16.124H37.5381Z" fill="white"/>
</svg>
