<svg width="14" height="14" viewBox="0 0 14 14" fill="none" xmlns="http://www.w3.org/2000/svg">
<g clip-path="url(#clip0_35:1535)">
<path d="M10.1546 1.11816C9.50117 1.12838 8.86201 1.31175 8.30166 1.64974C7.7413 1.98773 7.27958 2.46839 6.96313 3.04316C6.64668 2.46839 6.18496 1.98773 5.6246 1.64974C5.06424 1.31175 4.42509 1.12838 3.77168 1.11816C2.73007 1.16366 1.74871 1.62173 1.042 2.3923C0.335282 3.16287 -0.0393422 4.1833 -2.90214e-05 5.23066C-2.90214e-05 7.88308 2.77711 10.7799 5.10629 12.744C5.62633 13.1833 6.28385 13.4242 6.96313 13.4242C7.64241 13.4242 8.29993 13.1833 8.81997 12.744C11.1491 10.7799 13.9263 7.88308 13.9263 5.23066C13.9656 4.1833 13.591 3.16287 12.8843 2.3923C12.1775 1.62173 11.1962 1.16366 10.1546 1.11816Z" fill="#FE7171"/>
</g>
<defs>
<clipPath id="clip0_35:1535">
<rect width="13.9263" height="14" fill="white"/>
</clipPath>
</defs>
</svg>
