<svg width="14" height="14" viewBox="0 0 14 14" fill="none" xmlns="http://www.w3.org/2000/svg">
<path d="M0.774097 7.23384L2.85076 8.7505L2.0621 11.1929C1.93465 11.5717 1.93303 11.9816 2.05749 12.3614C2.18196 12.7412 2.42583 13.0706 2.75276 13.3005C3.07409 13.5378 3.46349 13.6649 3.86294 13.6629C4.26238 13.6609 4.65049 13.5299 4.96943 13.2894L7.00001 11.7949L9.03118 13.2877C9.35193 13.5236 9.73923 13.6517 10.1374 13.6537C10.5356 13.6556 10.9241 13.5313 11.2471 13.2985C11.5702 13.0657 11.8111 12.7364 11.9352 12.3581C12.0593 11.9798 12.0603 11.5718 11.9379 11.1929L11.1493 8.7505L13.2259 7.23384C13.5463 6.99963 13.7844 6.67019 13.9063 6.29256C14.0282 5.91494 14.0277 5.50844 13.9047 5.13115C13.7818 4.75385 13.5428 4.42504 13.2219 4.1917C12.9009 3.95835 12.5144 3.8324 12.1176 3.83184H9.56668L8.7926 1.41917C8.67087 1.03939 8.43167 0.708094 8.1095 0.47304C7.78732 0.237987 7.39882 0.111328 7.00001 0.111328C6.60121 0.111328 6.21271 0.237987 5.89053 0.47304C5.56836 0.708094 5.32916 1.03939 5.20743 1.41917L4.43335 3.83184H1.88476C1.48795 3.8324 1.10146 3.95835 0.780502 4.1917C0.459545 4.42504 0.220537 4.75385 0.0976175 5.13115C-0.0253021 5.50844 -0.0258462 5.91494 0.096063 6.29256C0.217972 6.67019 0.456099 6.99963 0.77643 7.23384H0.774097Z" fill="#F5C751"/>
</svg>
