<svg width="16" height="16" viewBox="0 0 16 16" fill="none" xmlns="http://www.w3.org/2000/svg">
<path d="M8.00009 2.66669C8.73648 2.66669 9.33344 2.06973 9.33344 1.33334C9.33344 0.596958 8.73648 0 8.00009 0C7.26371 0 6.66675 0.596958 6.66675 1.33334C6.66675 2.06973 7.26371 2.66669 8.00009 2.66669Z" fill="black"/>
<path d="M8.00009 9.3327C8.73648 9.3327 9.33344 8.73574 9.33344 7.99936C9.33344 7.26297 8.73648 6.66602 8.00009 6.66602C7.26371 6.66602 6.66675 7.26297 6.66675 7.99936C6.66675 8.73574 7.26371 9.3327 8.00009 9.3327Z" fill="black"/>
<path d="M8.00009 15.9997C8.73648 15.9997 9.33344 15.4027 9.33344 14.6664C9.33344 13.93 8.73648 13.333 8.00009 13.333C7.26371 13.333 6.66675 13.93 6.66675 14.6664C6.66675 15.4027 7.26371 15.9997 8.00009 15.9997Z" fill="black"/>
</svg>
