<svg width="16" height="16" viewBox="0 0 16 16" fill="none" xmlns="http://www.w3.org/2000/svg">
<g clip-path="url(#clip0_360_19)">
<path d="M15.4127 0.588396C15.1737 0.346481 14.8763 0.170299 14.5493 0.0768735C14.2224 -0.0165524 13.8768 -0.0240647 13.546 0.0550625L2.87938 2.30173C2.2651 2.38597 1.68654 2.64005 1.20885 3.03534C0.731162 3.43063 0.373323 3.95143 0.175631 4.53911C-0.0220613 5.12678 -0.0517543 5.75797 0.0898956 6.36161C0.231545 6.96524 0.538912 7.51734 0.977381 7.95573L2.12271 9.1004C2.1847 9.16237 2.23386 9.23595 2.26738 9.31694C2.3009 9.39794 2.31812 9.48474 2.31805 9.5724V11.6844C2.31952 11.9813 2.38788 12.2742 2.51805 12.5411L2.51271 12.5457L2.53005 12.5631C2.72539 12.9558 3.04444 13.2735 3.43805 13.4671L3.45538 13.4844L3.46005 13.4791C3.72696 13.6092 4.01976 13.6776 4.31671 13.6791H6.42871C6.60542 13.6789 6.77494 13.7489 6.90005 13.8737L8.04472 15.0184C8.35173 15.3288 8.71715 15.5754 9.1199 15.7439C9.52266 15.9125 9.95479 15.9996 10.3914 16.0004C10.7552 15.9999 11.1166 15.9405 11.4614 15.8244C12.0437 15.6332 12.561 15.2831 12.9549 14.8135C13.3488 14.344 13.6036 13.7737 13.6907 13.1671L15.9407 2.47706C16.0239 2.14349 16.019 1.79401 15.9265 1.4629C15.8339 1.1318 15.6569 0.830442 15.4127 0.588396V0.588396ZM3.06671 8.15906L1.92071 7.0144C1.65386 6.75397 1.46683 6.42283 1.38157 6.05983C1.29631 5.69684 1.31637 5.31706 1.43938 4.96506C1.55864 4.60394 1.77912 4.28468 2.07458 4.04524C2.37004 3.8058 2.72806 3.65625 3.10605 3.6144L13.6667 1.39106L3.65005 11.4091V9.5724C3.65106 9.30995 3.60002 9.04991 3.4999 8.80732C3.39977 8.56473 3.25254 8.34439 3.06671 8.15906V8.15906ZM12.3807 12.9391C12.3295 13.3073 12.1767 13.654 11.9394 13.9402C11.7022 14.2264 11.3898 14.4408 11.0375 14.5593C10.6851 14.6778 10.3067 14.6958 9.94467 14.6112C9.58266 14.5266 9.25139 14.3428 8.98805 14.0804L7.84138 12.9337C7.6563 12.7476 7.43614 12.6001 7.19366 12.4996C6.95118 12.3991 6.69119 12.3477 6.42871 12.3484H4.59205L14.61 2.33373L12.3807 12.9391Z" fill="black"/>
</g>
<defs>
<clipPath id="clip0_360_19">
<rect width="16" height="16" fill="white"/>
</clipPath>
</defs>
</svg>
